<?xml version="1.0" standalone="no"?>
<!DOCTYPE svg PUBLIC "-//W3C//DTD SVG 20010904//EN"
 "http://www.w3.org/TR/2001/REC-SVG-20010904/DTD/svg10.dtd">
<svg version="1.0" xmlns="http://www.w3.org/2000/svg"
 width="256.000000pt" height="256.000000pt" viewBox="0 0 256.000000 256.000000"
 preserveAspectRatio="xMidYMid meet">
<metadata>
Created by potrace 1.15, written by Peter Selinger 2001-2017
</metadata>
<g transform="translate(0.000000,256.000000) scale(0.100000,-0.100000)"
fill="#000000" stroke="none">
<path d="M93 2123 c4 -16 4 -22 1 -15 -6 14 -34 17 -34 3 0 -5 5 -11 11 -13 8
-3 8 -10 -2 -26 l-14 -22 -17 22 c-23 30 -34 14 -37 -49 -2 -57 5 -79 26 -87
12 -5 14 -1 10 14 -5 21 16 29 28 10 3 -5 1 -10 -5 -10 -6 0 -8 -4 -5 -10 3
-5 0 -10 -7 -10 -9 0 -9 -3 2 -10 11 -7 6 -8 -17 -4 -28 6 -33 4 -33 -12 0
-12 3 -15 8 -7 5 8 11 8 24 -1 20 -14 14 -26 -13 -26 -16 0 -18 -14 -18 -159
l-1 -160 51 1 c29 0 46 3 40 8 -13 8 122 4 177 -5 18 -4 30 -10 27 -15 -3 -6
-16 -5 -31 0 -19 8 -29 6 -40 -5 -18 -18 -34 -20 -34 -4 0 7 -11 9 -27 6 -29
-6 -74 -14 -129 -23 -18 -2 -31 -10 -31 -19 0 -17 14 -20 19 -5 2 6 35 13 73
15 39 2 102 7 140 10 39 3 96 7 127 10 32 2 62 6 66 9 5 3 53 8 108 11 l99 7
-35 -22 c-43 -27 -89 -70 -142 -132 l-40 -48 25 -9 c35 -14 45 -33 15 -30 -37
3 -92 -1 -86 -6 3 -3 47 -7 98 -9 94 -4 94 -4 70 15 -14 10 -19 19 -13 19 7 0
33 16 59 35 41 31 46 40 22 36 -15 -2 -8 11 15 30 29 24 36 24 77 -10 33 -28
33 -29 8 -24 -14 3 -29 0 -32 -6 -5 -7 10 -11 46 -11 48 0 54 2 55 22 2 16 0
19 -6 9 -5 -7 -14 -10 -21 -6 -8 5 -5 11 9 22 24 16 28 35 6 27 -8 -4 -12 -11
-8 -18 3 -6 3 -8 -2 -4 -4 4 -14 3 -22 -3 -7 -6 -13 -8 -12 -3 0 5 24 27 53
50 l52 41 24 -19 c20 -16 21 -21 9 -29 -12 -7 -12 -9 1 -10 8 0 25 -2 38 -5
28 -5 29 12 1 27 -17 8 -19 13 -9 19 8 5 15 16 16 25 2 15 0 15 -21 1 -48 -31
-61 -7 -25 44 l20 28 -60 -19 c-105 -32 -156 -64 -209 -131 -78 -99 -101 -119
-125 -112 -37 11 -39 21 -10 55 91 107 149 145 291 190 40 12 75 29 78 36 4
11 0 10 -17 -2 -13 -8 -39 -15 -60 -15 -21 0 -38 -4 -38 -9 0 -5 -12 -11 -26
-14 -18 -3 -24 -1 -20 9 3 9 -2 14 -13 14 -15 0 -18 -5 -13 -22 4 -17 2 -20
-12 -15 -10 4 -22 7 -28 7 -6 0 -8 7 -4 15 4 10 -1 15 -15 15 -15 0 -19 -5
-15 -15 4 -11 -2 -15 -24 -15 -21 0 -28 4 -24 14 7 17 -26 23 -86 15 -25 -3
-37 -7 -28 -7 32 -3 30 -22 -2 -22 -25 0 -31 4 -26 15 3 9 0 15 -9 15 -8 0
-15 -6 -15 -14 0 -9 -8 -12 -25 -8 -14 2 -22 8 -19 13 3 5 -2 9 -10 9 -9 0
-16 -4 -16 -10 0 -14 -47 -12 -54 3 -5 10 -7 10 -12 0 -7 -15 -54 -18 -54 -4
0 5 -27 10 -60 10 -33 0 -68 5 -77 11 -13 7 8 9 79 5 128 -6 315 16 302 36 -3
5 10 9 28 8 31 -1 32 -1 8 -9 l-25 -8 24 -1 c14 -1 32 5 40 13 11 10 73 17
209 25 106 6 201 15 212 21 10 5 37 10 59 10 22 0 43 5 46 10 10 16 36 12 51
-7 13 -16 14 -16 8 -1 -10 29 6 41 27 22 17 -15 19 -15 19 -1 0 22 18 31 36
16 11 -9 18 -8 35 7 16 14 24 16 38 7 15 -10 23 -8 41 9 18 17 26 19 41 10 23
-15 49 -5 49 18 0 13 -5 17 -20 13 -29 -8 -24 10 7 24 15 7 27 12 28 10 0 -1
6 -14 13 -29 12 -30 31 -35 63 -17 13 7 18 16 14 27 -4 12 1 10 18 -6 27 -25
49 -28 66 -8 9 11 9 15 0 18 -6 2 0 9 14 15 21 10 25 10 21 -1 -5 -14 21 -40
33 -33 4 3 30 -11 58 -29 27 -19 47 -34 45 -35 -3 0 -18 -2 -35 -3 -70 -7
-131 -20 -144 -30 -12 -9 -14 -8 -9 4 3 9 -7 24 -23 38 -34 27 -39 18 -8 -14
l20 -22 -31 -16 c-22 -11 -30 -12 -27 -3 2 7 -14 26 -37 41 l-41 29 29 -30
c27 -30 28 -53 2 -53 -7 0 -35 17 -62 37 l-49 38 33 -43 c30 -37 32 -44 18
-57 -8 -8 -22 -15 -30 -15 -9 0 -16 -4 -16 -10 0 -19 -41 -10 -78 17 l-37 27
30 -33 c17 -18 39 -37 50 -41 20 -9 19 -9 -1 -9 -12 -1 -34 8 -50 20 -21 15
-20 13 5 -10 19 -16 38 -28 43 -25 4 3 8 0 8 -5 0 -16 -22 -13 -50 5 -19 12
-18 9 5 -11 22 -20 25 -26 10 -21 -14 5 -11 -1 10 -18 17 -14 36 -25 43 -26 6
0 12 -7 12 -15 0 -24 -34 -17 -75 15 -21 17 -40 30 -44 30 -8 0 101 -95 111
-96 21 -4 22 -6 3 -14 -37 -16 -60 -10 -112 30 -29 22 -53 36 -53 32 0 -16
112 -117 117 -104 6 16 23 16 23 -1 0 -7 -20 -19 -45 -26 -49 -14 -49 -14
-167 63 -16 10 -28 16 -28 14 0 -2 22 -29 50 -59 27 -29 50 -57 50 -61 0 -12
50 -9 50 2 0 6 5 10 11 10 6 0 9 -8 7 -17 -2 -11 -20 -20 -54 -28 -89 -20
-120 -13 -224 48 l-95 57 45 -42 c57 -53 100 -111 101 -135 0 -11 3 -13 6 -5
4 10 8 10 19 2 10 -9 19 -6 38 13 14 14 28 22 30 18 11 -17 -21 -43 -64 -53
-54 -13 -179 -18 -185 -7 -3 4 -13 5 -23 3 -9 -3 -60 20 -112 49 -52 30 -97
52 -100 50 -3 -2 2 -9 11 -13 9 -5 38 -35 65 -67 27 -31 42 -53 34 -49 -8 5 1
-8 20 -29 19 -21 30 -35 24 -32 -16 9 -25 -18 -11 -32 6 -6 7 -14 3 -18 -10
-10 -186 -11 -186 -1 0 4 -7 5 -15 2 -8 -4 -22 -1 -30 6 -11 9 -15 10 -15 1 0
-8 -8 -10 -22 -6 -41 12 -288 140 -286 147 2 4 36 32 77 63 41 30 70 55 64 55
-6 0 -27 -14 -48 -30 -41 -33 -59 -29 -53 11 3 21 9 24 53 27 33 2 56 10 68
23 10 10 14 19 9 19 -5 0 -15 -6 -21 -13 -16 -20 -230 -21 -238 -1 -3 8 -10
14 -15 14 -6 0 -5 -6 2 -15 11 -13 6 -15 -39 -15 -31 0 -51 -4 -51 -11 0 -8
12 -10 34 -6 25 4 36 1 40 -10 10 -26 7 -43 -9 -43 -28 0 -15 -26 25 -50 41
-26 47 -35 30 -45 -6 -3 -10 1 -10 9 0 19 -33 21 -79 5 -34 -12 -42 -29 -12
-29 11 0 22 -6 24 -12 3 -8 6 -7 6 4 1 25 19 32 36 14 9 -8 22 -13 30 -9 24 9
85 -7 85 -22 0 -8 7 -11 19 -8 12 3 30 -6 50 -26 17 -17 27 -31 21 -31 -6 0
-8 -5 -5 -10 4 -6 11 -8 16 -5 12 8 49 -4 49 -16 0 -5 -8 -9 -17 -9 -15 0 -16
-2 -3 -10 8 -5 17 -5 20 -1 9 14 50 23 50 12 0 -6 7 -11 15 -11 8 0 15 -5 15
-10 0 -7 -6 -8 -16 -2 -16 9 -54 5 -54 -5 0 -2 7 -11 15 -19 8 -9 15 -20 15
-26 0 -6 -9 1 -21 16 -26 33 -36 33 -36 1 0 -22 8 -30 29 -26 4 0 5 -6 2 -14
-4 -9 0 -15 10 -15 9 0 16 -4 16 -10 0 -5 -7 -10 -15 -10 -8 0 -15 5 -15 10 0
6 -5 10 -11 10 -7 0 -9 -10 -7 -25 3 -15 -1 -30 -10 -37 -19 -17 -229 -20
-235 -4 -3 7 -22 10 -50 8 l-45 -4 0 -139 c-1 -131 1 -139 19 -139 25 0 25
-17 -1 -25 -19 -6 -20 -15 -20 -255 0 -245 3 -285 21 -274 6 3 15 2 22 -3 7
-5 23 -8 37 -6 129 13 172 20 178 30 4 6 22 14 40 18 17 3 32 11 32 15 0 5 7
7 15 4 9 -4 15 0 15 8 0 13 70 53 91 53 4 0 11 3 15 8 4 4 28 7 53 8 63 1 82
9 127 47 27 23 43 30 58 26 12 -4 23 -11 24 -15 5 -12 29 -11 37 1 3 6 -1 7
-10 4 -11 -5 -14 -2 -9 10 4 11 13 15 23 11 9 -4 21 -7 26 -8 6 -1 13 -6 16
-10 7 -10 59 2 59 14 0 9 -13 12 -42 10 -10 -1 -18 2 -18 6 0 11 40 11 57 0
13 -8 27 8 18 23 -3 5 -12 7 -19 4 -8 -3 -17 0 -21 7 -6 9 -1 10 19 7 14 -3
26 -1 26 3 0 5 8 9 17 9 13 0 14 -3 5 -12 -7 -7 -12 -18 -12 -26 0 -8 12 -2
29 15 21 20 26 32 19 41 -12 14 -32 16 -23 2 3 -5 2 -10 -4 -10 -5 0 -13 5
-16 10 -3 6 -17 7 -31 4 -14 -4 -24 -2 -24 5 0 9 36 16 63 12 19 -3 4 17 -37
49 -18 14 -19 13 -13 -10 5 -19 1 -29 -13 -37 -14 -10 -20 -10 -23 0 -3 7 -6
4 -6 -7 -1 -12 -6 -16 -17 -12 -9 3 -20 6 -25 6 -6 0 -8 4 -5 8 2 4 -4 8 -14
9 -11 1 -22 -2 -25 -8 -8 -12 -71 -12 -112 0 -19 6 -35 6 -38 1 -3 -5 -13 -6
-21 -3 -15 5 -15 7 0 15 11 6 15 16 11 29 -5 15 -2 19 14 19 12 0 21 -5 21
-11 0 -5 5 -7 12 -3 6 4 43 9 82 10 60 2 116 7 136 13 3 1 -2 6 -10 11 -12 8
-9 10 12 10 18 0 26 4 23 12 -3 8 4 14 20 14 15 1 34 9 44 18 10 9 31 16 48
16 17 0 44 7 59 15 16 8 25 15 20 15 -15 0 27 42 54 53 14 6 40 11 57 12 51 2
49 12 -3 18 -26 2 -49 9 -53 14 -10 15 -39 23 -43 11 -2 -6 -9 -4 -16 4 -10
13 -7 15 16 16 15 0 32 1 37 2 6 2 17 2 25 1 13 -1 13 -2 0 -11 -23 -14 -3
-24 25 -12 26 12 36 38 10 28 -18 -6 -45 2 -45 15 0 5 6 9 14 9 8 0 23 11 34
25 14 18 28 24 53 23 51 -1 97 11 103 29 5 12 16 14 51 10 26 -4 45 -2 45 4 0
5 -12 9 -27 9 -19 0 -24 3 -16 11 15 15 66 0 59 -17 -6 -17 -1 -17 25 -4 29
16 23 27 -23 38 -40 9 -76 12 -201 12 -34 0 -47 4 -44 13 2 6 12 12 23 13 10
1 38 2 61 3 27 0 51 9 70 25 15 13 39 27 52 31 14 4 39 20 55 36 33 31 33 31
-31 32 -19 0 -18 3 14 33 20 19 42 34 49 34 8 0 24 10 35 21 20 20 20 23 5 31
-9 5 -26 6 -38 2 -21 -6 -21 -6 -5 10 9 10 17 22 17 27 0 5 11 11 25 15 14 3
29 14 34 23 8 14 1 16 -52 16 -56 0 -62 2 -65 22 -4 26 25 73 44 73 8 0 14 7
14 15 0 8 5 15 10 15 6 0 10 5 10 11 0 7 -10 9 -25 7 -19 -4 -25 -1 -25 11 0
10 5 22 12 29 9 9 9 12 0 12 -7 0 -12 13 -12 29 0 20 -6 31 -17 34 -17 4 -17
5 0 6 9 0 17 6 17 11 0 6 -8 10 -17 10 -14 1 -12 4 7 15 l25 14 -25 2 c-18 1
-13 4 18 12 23 5 42 14 42 18 0 5 7 9 15 9 9 0 18 7 21 15 4 9 19 15 39 15 18
0 35 5 37 10 2 6 14 12 28 14 14 2 33 7 42 11 9 3 50 13 90 20 40 7 63 14 51
14 -13 1 -23 5 -23 10 0 5 -8 8 -17 7 -10 0 -19 7 -21 17 -3 13 3 17 28 17 27
0 31 3 28 22 -2 14 -13 25 -28 29 -34 9 -20 11 83 10 69 -1 87 2 87 14 0 11
13 13 55 11 31 -2 58 1 61 6 3 4 -23 9 -58 10 l-63 1 60 7 c35 4 79 17 105 32
28 15 58 24 80 23 19 -2 47 5 62 13 22 13 30 13 42 3 8 -7 20 -10 25 -6 6 3
24 -4 40 -16 l29 -22 32 23 c20 14 35 19 43 13 7 -6 23 -7 37 -3 24 6 25 10
26 83 2 60 -1 77 -12 77 -8 0 -14 5 -14 10 0 6 -11 10 -25 10 -24 0 -34 13
-18 23 5 2 3 2 -4 1 -6 -2 -14 5 -18 14 -6 16 -7 16 -19 0 -7 -10 -17 -14 -21
-10 -5 4 -5 -1 -2 -10 4 -12 2 -15 -9 -11 -7 3 -14 9 -14 14 0 5 -7 9 -16 9
-8 0 -13 -4 -10 -9 3 -5 -1 -11 -9 -15 -8 -3 -15 -2 -15 2 0 4 -4 13 -9 20 -7
11 -12 12 -29 1 -11 -7 -18 -18 -16 -24 7 -17 -45 -12 -56 5 -9 14 -15 7 -11
-14 1 -5 -5 -6 -12 -3 -8 3 -19 1 -25 -5 -12 -12 -35 -1 -27 13 3 5 -1 6 -10
3 -11 -5 -14 -2 -9 10 9 24 -23 32 -46 11 -18 -16 -20 -17 -20 -2 0 12 -8 17
-26 17 -19 0 -25 -4 -20 -15 3 -9 0 -15 -9 -15 -8 0 -15 4 -15 9 0 5 -7 17
-16 25 -19 19 -44 2 -36 -26 5 -22 -14 -24 -34 -3 -13 13 -18 13 -38 0 -12 -8
-25 -13 -28 -10 -3 3 -18 8 -33 11 -22 4 -26 2 -22 -11 8 -19 -7 -19 -38 1
-17 11 -25 12 -25 5 0 -7 -4 -10 -9 -7 -5 3 -21 -4 -37 -16 -15 -13 -25 -18
-21 -11 4 6 1 15 -6 21 -16 13 -114 31 -150 27 -16 -2 -43 5 -60 15 -34 20
-103 34 -152 31 -70 -4 -100 -2 -103 8 -2 5 -10 7 -18 4 -7 -3 -11 -9 -8 -14
3 -5 -3 -9 -13 -9 -15 0 -15 -2 -4 -9 12 -8 9 -11 -12 -16 -21 -6 -37 -1 -65
17 -24 16 -50 24 -72 23 -67 -3 -155 -18 -168 -28 -8 -6 -34 -12 -60 -13 -25
-1 -48 -6 -50 -13 -2 -6 -9 -8 -14 -4 -7 4 -9 -2 -5 -17 5 -19 1 -18 -23 11
-16 19 -29 39 -30 45 0 7 -7 15 -16 18 -12 5 -14 1 -8 -16 5 -17 3 -20 -10
-15 -20 8 -20 -1 0 -24 16 -18 12 -39 -8 -39 -7 0 -7 5 1 14 15 18 -19 28 -59
16 -19 -5 -30 -5 -30 1 0 6 -5 7 -10 4 -6 -4 -17 -2 -25 5 -8 7 -16 7 -19 1
-9 -14 -41 -2 -51 21 -8 16 -22 21 -70 24 -33 2 -68 1 -78 -2 -21 -7 -13 -24
12 -24 10 0 24 -7 31 -15 9 -10 9 -15 1 -15 -6 0 -11 4 -11 9 0 4 -11 6 -25 3
-15 -2 -25 0 -25 7 0 14 -43 14 -56 1 -8 -8 -15 -6 -24 5 -7 8 -18 15 -26 15
-7 0 -14 10 -16 21 -2 12 -14 26 -27 30 -21 9 -23 7 -18 -18z m1394 -156 c15
-13 47 -34 70 -47 24 -13 41 -26 38 -28 -3 -3 -32 -6 -65 -7 -57 -2 -60 -1
-54 19 6 18 5 19 -8 8 -13 -10 -15 -8 -10 15 4 27 4 27 -14 11 -15 -15 -16
-21 -5 -45 11 -23 10 -29 -4 -39 -12 -9 -15 -19 -10 -35 7 -22 7 -22 -10 -6
-17 17 -17 19 3 40 25 26 18 41 -22 51 -26 6 -28 5 -17 -8 12 -14 9 -16 -20
-16 -55 0 -78 10 -72 28 4 10 3 14 -2 10 -4 -4 -15 2 -25 14 -11 15 -19 18
-24 10 -4 -7 -3 -12 2 -12 6 0 8 -9 5 -19 -5 -21 -64 -35 -74 -18 -4 6 -17 4
-36 -5 -36 -18 -142 -15 -155 4 -6 10 -8 10 -8 -2 0 -10 -6 -8 -19 8 -16 22
-19 23 -34 8 -14 -15 -17 -15 -29 2 -7 9 -28 30 -46 45 -33 27 -33 27 -8 27
14 0 33 -10 44 -25 19 -24 42 -33 42 -17 0 12 56 42 79 42 11 0 40 -14 65 -31
33 -22 50 -28 63 -21 10 4 28 7 41 6 21 -1 26 6 23 34 -3 22 41 13 90 -19 l49
-31 34 21 c18 12 39 28 46 36 18 21 44 19 77 -8z m-284 -1019 c8 -22 -7 -103
-20 -103 -6 0 -15 -3 -19 -7 -4 -5 -1 -8 7 -8 11 0 11 -2 -1 -10 -20 -13 -33
-12 -24 2 4 7 3 8 -5 4 -6 -4 -9 -11 -6 -16 3 -5 0 -12 -6 -16 -13 -7 -80 66
-72 79 2 4 18 7 35 7 30 0 105 46 94 57 -3 3 -21 -6 -41 -21 -28 -22 -42 -26
-68 -21 -17 4 -44 7 -59 8 -40 3 -35 17 5 17 19 0 37 3 41 7 4 4 22 6 41 5 18
-2 36 2 40 8 5 9 -13 11 -68 9 -42 -2 -79 0 -83 4 -4 4 40 7 98 7 76 0 107 -4
111 -12z m-335 -174 l92 -7 0 -63 c0 -53 -3 -65 -20 -74 -11 -6 -26 -8 -32 -4
-6 4 -8 3 -5 -3 8 -13 -59 -66 -73 -58 -5 3 -23 26 -40 50 -32 46 -27 62 15
51 31 -8 142 61 125 78 -6 6 -17 3 -32 -10 -56 -49 -117 -69 -133 -44 -3 6
-23 10 -43 10 -33 1 -35 2 -17 12 11 7 34 13 50 15 147 14 170 25 70 33 -53 5
-82 3 -87 -4 -9 -14 -61 -19 -52 -5 3 6 12 8 20 5 7 -3 16 0 20 6 4 7 3 8 -4
4 -7 -4 -12 -2 -12 3 0 13 32 13 158 5z m-466 -254 c64 -6 126 -10 137 -10 19
0 21 -6 20 -57 0 -32 -3 -52 -6 -45 -2 6 -12 12 -21 12 -13 0 -12 3 4 15 34
26 6 16 -48 -17 -38 -23 -48 -34 -35 -36 10 -2 26 7 36 19 10 12 23 19 29 15
18 -11 14 -26 -5 -19 -11 4 -14 3 -9 -5 4 -7 2 -12 -4 -12 -6 0 -8 -6 -4 -12
4 -7 4 -10 -1 -6 -12 11 -36 -12 -28 -26 4 -6 0 -5 -9 2 -14 11 -18 9 -29 -17
-7 -16 -17 -27 -23 -24 -5 3 -6 1 -2 -5 5 -8 18 -5 44 11 56 35 62 39 62 34 0
-8 -140 -97 -154 -97 -8 0 -26 19 -39 43 -14 24 -33 49 -41 57 -28 23 -17 31
37 28 47 -2 60 2 132 46 95 57 89 52 80 66 -5 8 -15 6 -33 -6 -15 -10 -56 -35
-92 -55 -56 -33 -70 -37 -100 -29 -38 9 -32 13 15 10 51 -3 19 12 -38 19 l-54
6 34 22 c19 13 32 19 29 14 -10 -16 37 -20 65 -5 15 7 45 14 67 14 21 0 47 6
57 14 17 12 16 14 -21 14 -21 1 -68 4 -103 6 -46 4 -69 1 -85 -9 -11 -8 -16
-15 -10 -15 5 0 15 5 22 12 6 6 14 9 18 6 9 -10 -33 -28 -50 -22 -13 5 -12 9
7 25 32 27 15 23 -55 -12 -58 -29 -66 -31 -122 -23 l-61 9 60 31 c66 34 74 34
327 14z"/>
<path d="M2418 1797 c-13 -5 -58 -6 -101 -3 -103 9 -204 -2 -212 -22 -6 -17
13 -44 27 -36 5 3 12 -3 15 -14 3 -12 16 -22 34 -26 28 -5 306 2 345 9 10 2
22 4 27 4 4 1 7 23 7 51 l0 49 -60 -2 c-33 -1 -70 -6 -82 -10z"/>
<path d="M1945 330 c4 -6 -8 -13 -26 -17 -28 -5 -30 -8 -15 -18 9 -7 16 -16
16 -20 0 -4 -6 -3 -12 2 -34 25 -67 32 -81 18 -8 -7 -38 -15 -68 -17 -30 -3
-52 -9 -50 -14 2 -5 6 -15 8 -22 4 -9 8 -8 18 4 11 16 12 16 18 0 5 -13 11
-15 26 -7 10 6 21 8 24 5 3 -3 26 -12 52 -20 42 -12 46 -12 35 1 -17 21 3 20
37 -2 26 -17 26 -17 14 5 -10 19 -9 22 7 22 11 0 24 6 30 13 12 15 5 58 -12
69 -16 11 -28 10 -21 -2z"/>
</g>
</svg>
