<?xml version="1.0" standalone="no"?>
<!DOCTYPE svg PUBLIC "-//W3C//DTD SVG 20010904//EN"
 "http://www.w3.org/TR/2001/REC-SVG-20010904/DTD/svg10.dtd">
<svg version="1.0" xmlns="http://www.w3.org/2000/svg"
 width="256.000000pt" height="256.000000pt" viewBox="0 0 256.000000 256.000000"
 preserveAspectRatio="xMidYMid meet">
<metadata>
Created by potrace 1.15, written by Peter Selinger 2001-2017
</metadata>
<g transform="translate(0.000000,256.000000) scale(0.100000,-0.100000)"
fill="#000000" stroke="none">
<path d="M1257 1124 c4 -36 2 -59 -7 -69 -7 -9 -10 -27 -6 -45 3 -17 1 -30 -4
-30 -5 0 -9 -8 -7 -17 1 -10 -2 -18 -7 -18 -6 0 -9 18 -9 40 l1 40 -6 -35 c-6
-28 -9 -31 -15 -17 -11 30 -8 57 8 63 8 4 15 10 15 16 0 5 -7 5 -17 -1 -14 -7
-21 -3 -35 20 -18 29 -38 39 -38 19 0 -7 -17 -9 -42 -7 -22 2 -50 2 -60 -1
-18 -4 -18 -6 -2 -29 10 -16 12 -29 6 -35 -5 -5 -7 -31 -4 -57 2 -30 0 -51 -7
-55 -6 -4 -11 -2 -11 3 0 15 -19 14 -35 -3 -11 -11 0 -13 73 -13 277 -2 355
-4 427 -12 77 -9 124 0 71 13 -35 9 -60 65 -52 116 8 54 -4 65 -68 63 -39 -2
-45 0 -26 6 l25 9 -25 1 c-34 1 -55 -14 -57 -41 -4 -51 -25 -118 -38 -118 -20
0 -28 33 -12 45 13 9 13 13 -2 31 -12 15 -16 40 -15 95 0 54 -3 76 -12 76 -9
0 -11 -15 -7 -53z"/>
</g>
</svg>
