<?xml version="1.0" standalone="no"?>
<!DOCTYPE svg PUBLIC "-//W3C//DTD SVG 20010904//EN"
 "http://www.w3.org/TR/2001/REC-SVG-20010904/DTD/svg10.dtd">
<svg version="1.0" xmlns="http://www.w3.org/2000/svg"
 width="256.000000pt" height="256.000000pt" viewBox="0 0 256.000000 256.000000"
 preserveAspectRatio="xMidYMid meet">
<metadata>
Created by potrace 1.15, written by Peter Selinger 2001-2017
</metadata>
<g transform="translate(0.000000,256.000000) scale(0.100000,-0.100000)"
fill="#000000" stroke="none">
<path d="M0 1944 l0 -615 28 3 27 3 3 -77 3 -78 -31 0 c-23 0 -30 -4 -30 -19
0 -11 6 -22 13 -24 9 -4 9 -6 0 -6 -10 -1 -13 -121 -13 -566 l0 -565 1280 0
1280 0 0 641 0 642 -47 -7 c-40 -5 -44 -4 -29 7 14 10 15 18 7 40 -6 15 -13
27 -16 27 -4 0 -3 -4 0 -10 3 -5 1 -19 -6 -31 -15 -29 -28 -9 -31 46 -1 27 -3
18 -7 -28 -3 -37 -8 -66 -11 -65 -3 1 -16 -4 -28 -11 l-24 -13 7 164 c3 90 6
173 6 186 -1 16 5 22 22 23 12 0 17 3 11 5 -7 3 -10 13 -7 22 5 22 47 26 63 7
10 -13 8 -15 -14 -15 -14 0 -26 -4 -26 -9 0 -5 9 -7 21 -4 12 4 25 0 31 -8 8
-11 9 -10 4 4 -7 22 5 22 25 -1 15 -18 26 -97 35 -251 9 -164 12 -23 13 563
l1 636 -1280 0 -1280 0 0 -616z m150 -344 c9 -5 19 -5 26 1 9 7 14 4 19 -12 4
-12 3 -24 -3 -28 -14 -9 -27 -111 -13 -111 5 0 15 8 20 18 8 13 11 14 11 2 1
-8 3 -27 5 -42 2 -16 0 -28 -5 -28 -5 0 -11 -13 -15 -29 -3 -16 -14 -39 -24
-50 -17 -20 -18 -19 -30 32 -16 64 -27 257 -15 257 5 0 16 -4 24 -10z m2153
-6 c-3 -9 2 -14 15 -14 27 0 33 -38 28 -169 -3 -84 -7 -107 -21 -117 -15 -11
-15 -13 2 -17 15 -4 14 -5 -4 -6 -17 -1 -21 -5 -16 -18 4 -10 2 -14 -5 -9 -6
3 -13 2 -17 -4 -10 -16 -28 -11 -21 6 5 12 2 15 -13 11 -16 -4 -19 3 -25 56
-3 33 -6 83 -6 110 0 28 -3 47 -7 43 -8 -7 -8 -15 -11 -128 -2 -63 -5 -78 -18
-78 -9 0 -12 5 -8 13 5 7 2 7 -10 -2 -9 -8 -16 -10 -15 -5 1 5 0 23 -1 39 -3
28 -3 27 -10 -10 -6 -35 -8 -29 -10 38 -2 42 -4 84 -4 93 -1 11 18 23 54 37
49 18 52 21 30 27 -14 3 -26 14 -28 23 -4 18 19 47 37 47 6 0 11 8 11 18 0 26
6 30 45 30 25 0 32 -4 28 -14z m-1913 -154 c8 -16 15 -18 35 -10 22 9 24 7 20
-21 -7 -55 17 -80 35 -36 l9 22 0 -22 c1 -13 5 -23 11 -23 5 0 7 7 3 16 -4 12
-1 15 13 12 10 -2 19 -9 19 -17 0 -8 11 -18 24 -22 21 -8 23 -7 17 15 -4 15
-1 26 7 29 9 4 8 8 -3 16 -8 6 -10 11 -5 11 6 0 16 -5 22 -11 9 -9 16 -8 28 5
23 22 25 21 25 -19 0 -19 -5 -35 -11 -35 -6 0 -9 7 -5 15 3 8 1 15 -4 15 -6 0
-10 -4 -10 -8 0 -14 -36 -52 -49 -52 -7 0 -10 -4 -7 -9 3 -4 -6 -7 -19 -5 -35
3 -98 -15 -108 -32 -5 -9 -18 -12 -35 -9 -14 2 -29 0 -33 -6 -5 -8 -13 -8 -28
0 -16 9 -21 9 -21 -1 0 -18 -38 -40 -75 -44 -16 -2 -39 -6 -51 -9 -15 -3 -24
2 -30 18 -12 28 -6 68 9 66 7 -1 21 -1 32 0 17 1 17 3 5 11 -11 7 -4 9 25 8
22 0 46 -5 53 -11 8 -6 12 -6 12 3 0 7 7 10 15 6 11 -4 15 2 15 20 0 14 4 23
9 20 12 -8 23 23 15 46 -7 24 3 68 16 68 5 0 14 -9 20 -20z m1203 -362 c12 -9
17 -30 18 -74 1 -34 -1 -66 -5 -73 -4 -6 -8 -30 -8 -53 0 -23 -5 -50 -12 -60
-12 -21 -36 -24 -37 -5 -2 49 -8 122 -14 180 -10 87 12 119 58 85z m204 -44
c15 -4 22 -16 26 -42 12 -91 -47 -364 -73 -335 -11 13 -32 122 -26 132 4 5 1
13 -5 16 -5 4 -8 12 -6 19 2 6 0 43 -4 81 -11 91 1 135 39 135 15 0 37 -3 49
-6z m487 -123 c11 -4 21 -16 22 -26 2 -10 5 -29 8 -41 4 -13 2 -26 -4 -29 -5
-3 -10 -24 -10 -47 0 -39 -37 -138 -52 -138 -5 0 -8 -8 -8 -19 0 -15 -28 -52
-31 -40 0 2 -2 15 -4 29 -2 14 -6 36 -9 50 -27 121 -40 250 -25 250 6 0 7 5 4
10 -7 12 80 13 109 1z m150 -31 c28 -10 35 -30 12 -30 -31 0 -23 -18 20 -49
33 -23 43 -35 36 -44 -6 -7 -13 -30 -18 -52 -4 -22 -17 -62 -30 -89 -13 -28
-24 -58 -24 -68 0 -29 -37 -42 -67 -23 -24 16 -25 20 -17 64 4 25 7 103 6 174
l-1 127 29 0 c16 0 40 -4 54 -10z"/>
</g>
</svg>
