<?xml version="1.0" standalone="no"?>
<!DOCTYPE svg PUBLIC "-//W3C//DTD SVG 20010904//EN"
 "http://www.w3.org/TR/2001/REC-SVG-20010904/DTD/svg10.dtd">
<svg version="1.0" xmlns="http://www.w3.org/2000/svg"
 width="256.000000pt" height="256.000000pt" viewBox="0 0 256.000000 256.000000"
 preserveAspectRatio="xMidYMid meet">
<metadata>
Created by potrace 1.15, written by Peter Selinger 2001-2017
</metadata>
<g transform="translate(0.000000,256.000000) scale(0.100000,-0.100000)"
fill="#000000" stroke="none">
<path d="M0 2309 l0 -250 88 2 c67 2 104 -3 160 -20 39 -13 72 -26 72 -30 0
-15 86 -34 170 -37 47 -2 104 -7 126 -10 37 -5 45 -2 73 25 36 35 45 37 83 17
19 -10 45 -13 84 -9 l56 6 -25 21 c-14 12 -34 27 -44 34 -16 11 -16 12 7 6 55
-15 171 -76 185 -98 19 -29 57 -46 84 -39 12 3 29 -1 39 -9 25 -22 253 -41
271 -22 3 2 -10 17 -29 32 -18 16 -30 33 -27 39 4 7 35 10 75 9 61 -1 72 -5
111 -35 35 -28 54 -35 95 -37 83 -5 239 -26 260 -37 53 -26 -33 -39 -349 -52
-71 -3 -131 -9 -133 -14 -5 -14 40 -51 62 -52 12 0 37 -2 56 -4 19 -2 54 -5
78 -8 23 -2 48 -9 54 -15 14 -14 82 -16 107 -2 20 10 81 25 124 29 5 1 5 6 2
12 -4 6 -28 10 -54 9 -78 -3 -91 -1 -91 15 0 10 10 15 28 16 32 1 70 4 172 13
79 7 99 2 105 -30 2 -10 4 -21 4 -23 1 -2 7 2 15 8 19 16 105 2 128 -21 10
-10 28 -18 40 -18 12 0 29 -6 37 -14 14 -13 16 -12 18 12 1 24 34 62 53 62 5
0 15 -7 23 -15 8 -8 16 -13 19 -12 5 2 -29 -26 -59 -50 -13 -10 -23 -21 -23
-25 0 -14 36 -14 58 0 30 19 96 23 119 7 12 -9 23 -10 35 -4 15 8 18 24 18
108 l0 99 -60 -4 -60 -4 0 53 c-1 30 -7 60 -15 71 -8 11 -15 27 -15 37 0 9 -7
20 -16 23 -14 5 -14 7 0 22 9 8 16 22 16 30 0 8 8 14 18 14 14 0 15 2 2 10 -8
5 -26 10 -39 10 -13 0 -29 7 -35 16 -10 13 -19 13 -59 4 -32 -7 -54 -7 -65 0
-10 5 -12 10 -4 10 6 0 12 6 12 14 0 10 13 12 48 11 26 -2 49 -4 52 -5 22 -9
138 4 153 17 9 9 17 12 17 8 0 -5 11 2 25 15 24 23 25 28 25 144 l0 121 -32 0
c-28 0 -33 4 -32 23 l1 22 -791 -1 c-675 -1 -786 -3 -760 -14 17 -8 38 -25 48
-39 15 -24 15 -26 -1 -26 -26 0 -135 41 -165 61 -24 18 -52 19 -427 19 l-401
0 0 -251z"/>
<path d="M1525 1370 c-10 -11 -13 -20 -8 -20 14 0 11 -33 -4 -43 -16 -10 -45
3 -39 19 3 7 -3 23 -13 36 -16 19 -22 21 -42 10 -28 -14 -62 -35 -69 -42 -3
-3 -17 -13 -32 -23 -16 -10 -28 -23 -28 -30 0 -7 -9 -20 -20 -30 -11 -9 -20
-24 -20 -32 0 -8 -4 -15 -8 -15 -5 0 -26 -16 -48 -35 -21 -19 -55 -40 -74 -46
-19 -7 -59 -23 -88 -37 -29 -13 -56 -22 -59 -18 -4 3 -16 -2 -27 -13 -42 -39
-152 -49 -209 -19 -10 5 -57 11 -105 12 -84 3 -182 28 -182 47 0 18 -42 19
-78 0 -22 -11 -42 -17 -46 -14 -3 3 -13 0 -22 -8 -10 -8 -20 -12 -23 -10 -3 2
-10 -5 -15 -16 -8 -17 -23 -22 -75 -27 -36 -4 -81 -12 -99 -19 -24 -8 -40 -8
-62 0 l-30 11 0 -92 0 -93 88 3 c98 4 133 10 144 27 5 8 8 6 8 -5 0 -9 -8 -19
-18 -21 -9 -3 48 -5 127 -6 119 -1 147 2 162 15 17 15 45 11 35 -5 -7 -10 107
-1 119 10 12 12 45 12 45 0 0 -5 -6 -12 -12 -15 -7 -3 10 -3 37 -1 37 3 43 2
25 -4 -24 -9 -23 -9 10 -12 19 -1 45 -3 57 -3 11 -1 25 -4 29 -8 4 -5 -21 -8
-55 -8 -42 0 -60 -4 -56 -11 4 -6 12 -8 19 -6 6 3 38 1 70 -5 40 -6 63 -5 70
2 5 5 15 10 21 10 5 0 2 -5 -8 -11 -18 -10 -18 -11 0 -25 10 -7 27 -14 38 -14
14 0 16 -3 8 -11 -9 -9 -20 -9 -42 1 -17 7 -31 16 -31 21 0 5 -6 6 -14 3 -8
-3 -17 -1 -21 5 -3 6 -13 11 -22 11 -13 0 -13 -3 -3 -15 7 -8 18 -15 26 -15 7
0 20 -10 28 -22 15 -21 66 -35 66 -17 0 5 4 9 10 9 5 0 7 -6 4 -13 -6 -16 -81
-37 -132 -37 -22 0 -32 -3 -24 -8 7 -5 -8 -7 -35 -6 -72 4 -80 5 -66 11 10 3
10 8 -1 19 -24 24 -44 17 -38 -12 3 -18 1 -25 -6 -20 -6 4 -10 -1 -9 -11 1
-15 12 -18 69 -19 37 -1 68 2 68 7 0 5 10 8 23 8 16 -1 18 -2 5 -6 -30 -8 -20
-19 15 -17 24 1 26 0 7 -4 l-25 -5 25 -8 c35 -10 -53 -2 -103 10 -23 5 -39 5
-43 0 -3 -6 -14 -7 -24 -4 -10 3 -20 0 -23 -9 -4 -11 -1 -13 11 -10 9 3 4 -2
-12 -12 -23 -13 -34 -14 -48 -5 -10 6 -25 11 -34 11 -13 0 -14 3 -5 14 10 11
8 17 -6 25 -16 9 -14 11 12 11 l30 2 -27 10 c-16 5 -28 14 -28 19 0 5 -7 9
-16 9 -8 0 -12 4 -9 10 6 10 -37 4 -85 -12 -22 -7 -22 -7 7 -5 26 3 30 1 22
-10 -11 -12 -5 -17 14 -14 4 0 7 -3 7 -8 0 -14 -31 -24 -73 -23 -40 0 -62 11
-39 19 6 3 12 9 12 14 0 6 -4 8 -9 5 -13 -8 -72 5 -66 14 7 11 -41 18 -57 9
-10 -7 -10 -9 0 -10 6 -1 17 -3 22 -4 6 -1 13 -3 18 -4 4 -1 -6 -13 -23 -26
l-30 -25 30 0 30 -1 -25 -21 c-14 -11 -24 -27 -22 -36 2 -10 -2 -13 -12 -9 -9
4 -16 2 -16 -3 0 -6 -8 -10 -17 -10 -15 0 -16 -2 -3 -10 13 -8 13 -10 -1 -10
-9 0 -19 7 -23 15 -3 8 -15 15 -26 15 -13 0 -18 4 -15 11 4 6 1 9 -6 8 -8 -1
-25 3 -39 9 -22 9 -18 11 35 12 45 2 54 4 35 10 -14 4 -36 5 -49 2 -13 -3 -21
-1 -18 4 3 5 -7 9 -21 8 -36 -2 -50 8 -26 17 15 6 12 8 -13 8 l-33 1 0 -84 0
-83 40 4 c25 3 40 1 40 -6 0 -6 -8 -11 -17 -11 -15 0 -16 -2 -3 -10 9 -6 10
-10 3 -10 -6 0 -15 4 -18 10 -4 6 -13 5 -25 -3 -19 -11 -20 -24 -20 -209 l0
-198 1280 0 1280 0 0 350 0 350 -39 0 c-22 0 -42 4 -45 8 -3 5 15 8 39 8 32
-1 45 3 45 13 0 8 -7 11 -20 8 -11 -3 -18 -1 -14 4 3 5 12 9 20 9 11 0 14 21
14 109 l0 109 -63 11 c-35 6 -71 11 -79 11 -9 0 -37 9 -62 21 -47 20 -95 19
-123 -3 -7 -6 -19 -6 -32 1 -13 8 -28 8 -46 1 -33 -12 -138 -13 -185 0 -93 24
-128 42 -140 70 -7 16 -20 36 -31 46 -10 9 -19 26 -19 37 0 11 -15 34 -32 51
-18 17 -40 44 -48 60 -8 16 -26 34 -40 40 -14 6 -40 26 -59 43 -40 38 -51 40
-76 13z"/>
</g>
</svg>
